<svg xmlns="http://www.w3.org/2000/svg" width="1000" height="633" viewBox="0 0 1000 633" role="img" aria-labelledby="title desc" style="--bg:#f5f5f0;--panel:#ffffff;--line:#d3d5cc;--ink:#20222b;--muted:#5a6270;--lime:#587d13;--violet:#7356bf;--soft:#e9e5f5">
<title id="title">toolkit</title><desc id="desc">AI engineering profile. Written content stays visible; motion is decorative.</desc><defs><style>text{font-family:Arial,"Segoe UI",sans-serif}
.mono{font-family:Consolas,"Courier New",monospace}
.star-spin{animation:spin 18s linear infinite}
@keyframes spin{to{transform:rotate(360deg)}}@media (prefers-reduced-motion: reduce){*{animation:none!important}}*{animation:none!important}</style>
<radialGradient id="haze"><stop stop-color="#7356bf" stop-opacity=".15"/><stop offset="1" stop-color="#7356bf" stop-opacity="0"/></radialGradient>
<linearGradient id="scan-grad"><stop stop-color="#587d13" stop-opacity="0"/><stop offset="1" stop-color="#587d13" stop-opacity=".2"/></linearGradient>
</defs><defs><style>
      .prof-packet{stroke-dasharray:17 83;animation:prof-packet 1.5s linear infinite}
      .prof-pulse{opacity:.7;animation:prof-pulse 3s ease-in-out infinite}
      .prof-cluster{animation:prof-cluster 6s ease-in-out infinite}
      .prof-halo{transform-box:fill-box;transform-origin:center;opacity:.15;animation:prof-halo 3s ease-out infinite}
      .prof-paper{animation:prof-paper 3s ease-in-out infinite alternate}
      .prof-scan{animation:prof-scan 3s ease-in-out infinite alternate}
      .prof-draw{stroke-dasharray:100;stroke-dashoffset:0;animation:prof-draw 6s ease-in-out infinite}
      .prof-bar{transform-box:fill-box;transform-origin:left center;animation:prof-bar 3s ease-in-out infinite alternate}
      .prof-rack{animation:prof-rack 3s ease-in-out infinite alternate}
      .prof-sweep{animation:prof-sweep 6s linear infinite}
      @keyframes prof-packet{from{stroke-dashoffset:100}to{stroke-dashoffset:0}}
      @keyframes prof-pulse{0%,100%{opacity:.22}35%,65%{opacity:1}}
      @keyframes prof-cluster{0%,12%,100%{transform:translate(var(--sx),var(--sy))}58%,86%{transform:translate(0,0)}}
      @keyframes prof-halo{0%{transform:scale(.55);opacity:0}25%{opacity:.3}100%{transform:scale(2.1);opacity:0}}
      @keyframes prof-paper{from{transform:translateY(0) rotate(0deg)}to{transform:translateY(-8px) rotate(-2deg)}}
      @keyframes prof-scan{from{transform:translateY(0)}to{transform:translateY(92px)}}
      @keyframes prof-draw{0%,12%{stroke-dashoffset:100;opacity:.3}68%,94%{stroke-dashoffset:0;opacity:1}100%{stroke-dashoffset:100;opacity:.3}}
      @keyframes prof-bar{from{transform:scaleX(.25)}to{transform:scaleX(1)}}
      @keyframes prof-rack{from{transform:translateY(2px)}to{transform:translateY(-4px)}}
      @keyframes prof-sweep{from{transform:translateX(0)}to{transform:translateX(var(--travel))}}
    </style>
    <filter id="prof-glow" x="-80%" y="-80%" width="260%" height="260%"><feGaussianBlur stdDeviation="1.15" result="blur"/><feMerge><feMergeNode in="blur"/><feMergeNode in="SourceGraphic"/></feMerge></filter>
    <linearGradient id="prof-scan-fill" x1="0" y1="0" x2="0" y2="1"><stop stop-color="var(--lime)" stop-opacity="0"/><stop offset="1" stop-color="var(--lime)" stop-opacity=".22"/></linearGradient>
    <linearGradient id="prof-sweep-fill"><stop stop-color="var(--violet)" stop-opacity="0"/><stop offset="1" stop-color="var(--lime)" stop-opacity=".85"/></linearGradient>
    </defs><rect x=".75" y=".75" width="998.5" height="631.5" rx="22" fill="var(--panel)" stroke="var(--line)" stroke-width="1.5"/><text x="36" y="32" font-size="12" fill="var(--lime)" font-weight="500" class="mono" letter-spacing="1.1">THE TOOLKIT</text><text x="35" y="77" font-size="34" fill="var(--ink)" font-weight="700" letter-spacing="-1.2">A practical stack, tied to real work.</text><rect x="36" y="116" width="928" height="84" rx="10" fill="var(--bg)" stroke="var(--line)"/><g transform="translate(50 140.0)"><path d="M3 5L22 18L39 31" fill="none" stroke="var(--violet)" stroke-opacity=".23"/><path class="prof-packet" pathLength="100" d="M3 5L22 18L39 31" fill="none" stroke="var(--violet)" stroke-width="1.4" stroke-linecap="round" filter="url(#prof-glow)" style="animation-delay:-0.25s"/><path d="M3 18L22 18L39 18" fill="none" stroke="var(--violet)" stroke-opacity=".23"/><path class="prof-packet" pathLength="100" d="M3 18L22 18L39 18" fill="none" stroke="var(--violet)" stroke-width="1.4" stroke-linecap="round" filter="url(#prof-glow)" style="animation-delay:-0.9s"/><path d="M3 31L22 18L39 5" fill="none" stroke="var(--violet)" stroke-opacity=".23"/><path class="prof-packet" pathLength="100" d="M3 31L22 18L39 5" fill="none" stroke="var(--violet)" stroke-width="1.4" stroke-linecap="round" filter="url(#prof-glow)" style="animation-delay:-1.55s"/><circle class="prof-pulse" cx="3" cy="5" r="2.5" fill="var(--lime)" style="animation-delay:-0.15000000000000002s"/><circle class="prof-pulse" cx="3" cy="18" r="2.5" fill="var(--lime)" style="animation-delay:-0.15000000000000002s"/><circle class="prof-pulse" cx="3" cy="31" r="2.5" fill="var(--lime)" style="animation-delay:-0.15000000000000002s"/><circle class="prof-pulse" cx="22" cy="18" r="2.5" fill="var(--lime)" style="animation-delay:-1.1s"/><circle class="prof-pulse" cx="39" cy="5" r="2.5" fill="var(--lime)" style="animation-delay:-1.9500000000000002s"/><circle class="prof-pulse" cx="39" cy="18" r="2.5" fill="var(--lime)" style="animation-delay:-1.9500000000000002s"/><circle class="prof-pulse" cx="39" cy="31" r="2.5" fill="var(--lime)" style="animation-delay:-1.9500000000000002s"/></g><text x="107" y="141" font-size="16" fill="var(--violet)" font-weight="600" >Programming &amp; ML Tools</text><text x="107" y="171" font-size="16.5" fill="var(--ink)" font-weight="400" >Python / SQL / PyTorch / TensorFlow / scikit-learn / OpenCV</text><rect class="prof-pulse" x="873" y="132" width="4" height="12" rx="2" fill="var(--lime)" style="animation-delay:-0.0s"/><rect class="prof-pulse" x="882" y="132" width="4" height="12" rx="2" fill="var(--lime)" style="animation-delay:-0.2s"/><rect class="prof-pulse" x="891" y="132" width="4" height="12" rx="2" fill="var(--lime)" style="animation-delay:-0.4s"/><rect class="prof-pulse" x="900" y="132" width="4" height="12" rx="2" fill="var(--lime)" style="animation-delay:-0.6000000000000001s"/><rect class="prof-pulse" x="909" y="132" width="4" height="12" rx="2" fill="var(--lime)" style="animation-delay:-0.8s"/><rect class="prof-pulse" x="918" y="132" width="4" height="12" rx="2" fill="var(--lime)" style="animation-delay:-1.0s"/><rect class="prof-pulse" x="927" y="132" width="4" height="12" rx="2" fill="var(--lime)" style="animation-delay:-1.2000000000000002s"/><defs><clipPath id="stack-lane-0"><rect x="44" y="196" width="912" height="2"/></clipPath></defs><g clip-path="url(#stack-lane-0)"><g transform="translate(-56 196)"><rect class="prof-sweep" width="100" height="2" fill="url(#prof-sweep-fill)" style="--travel:1028px;animation-delay:-0.0s"/></g></g><rect x="36" y="212" width="928" height="109" rx="10" fill="var(--bg)" stroke="var(--line)"/><g transform="translate(50 248.5)"><rect class="prof-pulse" x="0" y="0" width="4" height="5" rx="1" fill="var(--violet)" style="animation-delay:-0.0s"/><rect class="prof-pulse" x="8" y="0" width="4" height="5" rx="1" fill="var(--violet)" style="animation-delay:-0.35s"/><rect class="prof-pulse" x="16" y="0" width="4" height="5" rx="1" fill="var(--lime)" style="animation-delay:-0.7s"/><rect class="prof-pulse" x="24" y="0" width="4" height="5" rx="1" fill="var(--violet)" style="animation-delay:-1.0499999999999998s"/><rect class="prof-pulse" x="32" y="0" width="4" height="5" rx="1" fill="var(--violet)" style="animation-delay:-1.4s"/><rect class="prof-pulse" x="0" y="9" width="4" height="5" rx="1" fill="var(--violet)" style="animation-delay:-0.35s"/><rect class="prof-pulse" x="8" y="9" width="4" height="5" rx="1" fill="var(--violet)" style="animation-delay:-0.7s"/><rect class="prof-pulse" x="16" y="9" width="4" height="5" rx="1" fill="var(--lime)" style="animation-delay:-1.0499999999999998s"/><rect class="prof-pulse" x="24" y="9" width="4" height="5" rx="1" fill="var(--violet)" style="animation-delay:-1.4s"/><rect class="prof-pulse" x="32" y="9" width="4" height="5" rx="1" fill="var(--violet)" style="animation-delay:-1.75s"/><rect class="prof-pulse" x="0" y="18" width="4" height="5" rx="1" fill="var(--violet)" style="animation-delay:-0.7s"/><rect class="prof-pulse" x="8" y="18" width="4" height="5" rx="1" fill="var(--violet)" style="animation-delay:-1.0499999999999998s"/><rect class="prof-pulse" x="16" y="18" width="4" height="5" rx="1" fill="var(--lime)" style="animation-delay:-1.4s"/><rect class="prof-pulse" x="24" y="18" width="4" height="5" rx="1" fill="var(--violet)" style="animation-delay:-1.75s"/><rect class="prof-pulse" x="32" y="18" width="4" height="5" rx="1" fill="var(--violet)" style="animation-delay:-2.0999999999999996s"/><rect class="prof-pulse" x="0" y="27" width="4" height="5" rx="1" fill="var(--violet)" style="animation-delay:-1.0499999999999998s"/><rect class="prof-pulse" x="8" y="27" width="4" height="5" rx="1" fill="var(--violet)" style="animation-delay:-1.4s"/><rect class="prof-pulse" x="16" y="27" width="4" height="5" rx="1" fill="var(--lime)" style="animation-delay:-1.75s"/><rect class="prof-pulse" x="24" y="27" width="4" height="5" rx="1" fill="var(--violet)" style="animation-delay:-2.0999999999999996s"/><rect class="prof-pulse" x="32" y="27" width="4" height="5" rx="1" fill="var(--violet)" style="animation-delay:-2.4499999999999997s"/></g><text x="107" y="237" font-size="16" fill="var(--violet)" font-weight="600" >AI Domains</text><text x="107" y="267" font-size="16.5" fill="var(--ink)" font-weight="400" >Machine Learning / Computer Vision / Natural Language Processing</text><text x="107" y="292" font-size="16.5" fill="var(--ink)" font-weight="400" >Reinforcement Learning / Multimodal Learning / Time-Series Modeling</text><rect class="prof-pulse" x="873" y="228" width="4" height="12" rx="2" fill="var(--lime)" style="animation-delay:-0.5s"/><rect class="prof-pulse" x="882" y="228" width="4" height="12" rx="2" fill="var(--lime)" style="animation-delay:-0.7s"/><rect class="prof-pulse" x="891" y="228" width="4" height="12" rx="2" fill="var(--lime)" style="animation-delay:-0.9s"/><rect class="prof-pulse" x="900" y="228" width="4" height="12" rx="2" fill="var(--lime)" style="animation-delay:-1.1s"/><rect class="prof-pulse" x="909" y="228" width="4" height="12" rx="2" fill="var(--lime)" style="animation-delay:-1.3s"/><rect class="prof-pulse" x="918" y="228" width="4" height="12" rx="2" fill="var(--lime)" style="animation-delay:-1.5s"/><rect class="prof-pulse" x="927" y="228" width="4" height="12" rx="2" fill="var(--lime)" style="animation-delay:-1.7000000000000002s"/><defs><clipPath id="stack-lane-1"><rect x="44" y="317" width="912" height="2"/></clipPath></defs><g clip-path="url(#stack-lane-1)"><g transform="translate(-56 317)"><rect class="prof-sweep" width="100" height="2" fill="url(#prof-sweep-fill)" style="--travel:1028px;animation-delay:-1.5s"/></g></g><rect x="36" y="333" width="928" height="84" rx="10" fill="var(--bg)" stroke="var(--line)"/><g transform="translate(50 357.0)"><path d="M12 2H6V13L2 18L6 23V34H12M29 2H35V13L39 18L35 23V34H29" fill="none" stroke="var(--violet)" stroke-width="1.4"/><path d="M11 18H30" fill="none" stroke="var(--lime)" stroke-opacity=".23"/><path class="prof-packet" pathLength="100" d="M11 18H30" fill="none" stroke="var(--lime)" stroke-width="2.3" stroke-linecap="round" filter="url(#prof-glow)" style="animation-delay:-0s"/></g><text x="107" y="358" font-size="16" fill="var(--violet)" font-weight="600" >LLM &amp; Agentic Systems</text><text x="107" y="388" font-size="16.5" fill="var(--ink)" font-weight="400" >LangChain / LangGraph / Retrieval-Augmented Generation (RAG) / Tool Calling</text><rect class="prof-pulse" x="873" y="349" width="4" height="12" rx="2" fill="var(--lime)" style="animation-delay:-1.0s"/><rect class="prof-pulse" x="882" y="349" width="4" height="12" rx="2" fill="var(--lime)" style="animation-delay:-1.2s"/><rect class="prof-pulse" x="891" y="349" width="4" height="12" rx="2" fill="var(--lime)" style="animation-delay:-1.4s"/><rect class="prof-pulse" x="900" y="349" width="4" height="12" rx="2" fill="var(--lime)" style="animation-delay:-1.6s"/><rect class="prof-pulse" x="909" y="349" width="4" height="12" rx="2" fill="var(--lime)" style="animation-delay:-1.8s"/><rect class="prof-pulse" x="918" y="349" width="4" height="12" rx="2" fill="var(--lime)" style="animation-delay:-2.0s"/><rect class="prof-pulse" x="927" y="349" width="4" height="12" rx="2" fill="var(--lime)" style="animation-delay:-2.2s"/><defs><clipPath id="stack-lane-2"><rect x="44" y="413" width="912" height="2"/></clipPath></defs><g clip-path="url(#stack-lane-2)"><g transform="translate(-56 413)"><rect class="prof-sweep" width="100" height="2" fill="url(#prof-sweep-fill)" style="--travel:1028px;animation-delay:-3.0s"/></g></g><rect x="36" y="429" width="928" height="84" rx="10" fill="var(--bg)" stroke="var(--line)"/><g transform="translate(50 453.0)"><g class="prof-rack" style="animation-delay:-0.0s"><rect x="2" y="0" width="36" height="9" rx="2" fill="none" stroke="var(--violet)"/><circle class="prof-pulse" cx="8" cy="4.5" r="1.5" fill="var(--lime)"/><path d="M15 4.5H31" stroke="var(--lime)" stroke-opacity=".4"/></g><g class="prof-rack" style="animation-delay:-0.5s"><rect x="2" y="12" width="36" height="9" rx="2" fill="none" stroke="var(--violet)"/><circle class="prof-pulse" cx="8" cy="16.5" r="1.5" fill="var(--lime)"/><path d="M15 16.5H31" stroke="var(--lime)" stroke-opacity=".4"/></g><g class="prof-rack" style="animation-delay:-1.0s"><rect x="2" y="24" width="36" height="9" rx="2" fill="none" stroke="var(--violet)"/><circle class="prof-pulse" cx="8" cy="28.5" r="1.5" fill="var(--lime)"/><path d="M15 28.5H31" stroke="var(--lime)" stroke-opacity=".4"/></g></g><text x="107" y="454" font-size="16" fill="var(--violet)" font-weight="600" >Backend &amp; Engineering</text><text x="107" y="484" font-size="16.5" fill="var(--ink)" font-weight="400" >FastAPI / REST APIs / PostgreSQL / SQL Server / ETL Pipelines / Git</text><rect class="prof-pulse" x="873" y="445" width="4" height="12" rx="2" fill="var(--lime)" style="animation-delay:-1.5s"/><rect class="prof-pulse" x="882" y="445" width="4" height="12" rx="2" fill="var(--lime)" style="animation-delay:-1.7s"/><rect class="prof-pulse" x="891" y="445" width="4" height="12" rx="2" fill="var(--lime)" style="animation-delay:-1.9s"/><rect class="prof-pulse" x="900" y="445" width="4" height="12" rx="2" fill="var(--lime)" style="animation-delay:-2.1s"/><rect class="prof-pulse" x="909" y="445" width="4" height="12" rx="2" fill="var(--lime)" style="animation-delay:-2.3s"/><rect class="prof-pulse" x="918" y="445" width="4" height="12" rx="2" fill="var(--lime)" style="animation-delay:-2.5s"/><rect class="prof-pulse" x="927" y="445" width="4" height="12" rx="2" fill="var(--lime)" style="animation-delay:-2.7s"/><defs><clipPath id="stack-lane-3"><rect x="44" y="509" width="912" height="2"/></clipPath></defs><g clip-path="url(#stack-lane-3)"><g transform="translate(-56 509)"><rect class="prof-sweep" width="100" height="2" fill="url(#prof-sweep-fill)" style="--travel:1028px;animation-delay:-4.5s"/></g></g><rect x="36" y="525" width="928" height="84" rx="10" fill="var(--bg)" stroke="var(--line)"/><g transform="translate(50 549.0)"><path d="M7 2H34Q40 2 40 8V23Q40 29 34 29H17L8 36V29H7Q1 29 1 23V8Q1 2 7 2Z" fill="none" stroke="var(--violet)" stroke-width="1.3"/><text x="21" y="19" font-size="12" fill="var(--lime)" font-weight="600" class="mono" text-anchor="middle">B2</text><circle class="prof-pulse" cx="15" cy="24" r="1" fill="var(--lime)" style="animation-delay:-0.0s"/><circle class="prof-pulse" cx="21" cy="24" r="1" fill="var(--lime)" style="animation-delay:-0.4s"/><circle class="prof-pulse" cx="27" cy="24" r="1" fill="var(--lime)" style="animation-delay:-0.8s"/></g><text x="107" y="550" font-size="16" fill="var(--violet)" font-weight="600" >Languages &amp; Strengths</text><text x="107" y="580" font-size="16.5" fill="var(--ink)" font-weight="400" >English (B2) / Analytical Thinking / Problem Solving</text><rect class="prof-pulse" x="873" y="541" width="4" height="12" rx="2" fill="var(--lime)" style="animation-delay:-2.0s"/><rect class="prof-pulse" x="882" y="541" width="4" height="12" rx="2" fill="var(--lime)" style="animation-delay:-2.2s"/><rect class="prof-pulse" x="891" y="541" width="4" height="12" rx="2" fill="var(--lime)" style="animation-delay:-2.4s"/><rect class="prof-pulse" x="900" y="541" width="4" height="12" rx="2" fill="var(--lime)" style="animation-delay:-2.6s"/><rect class="prof-pulse" x="909" y="541" width="4" height="12" rx="2" fill="var(--lime)" style="animation-delay:-2.8s"/><rect class="prof-pulse" x="918" y="541" width="4" height="12" rx="2" fill="var(--lime)" style="animation-delay:-3.0s"/><rect class="prof-pulse" x="927" y="541" width="4" height="12" rx="2" fill="var(--lime)" style="animation-delay:-3.2s"/><defs><clipPath id="stack-lane-4"><rect x="44" y="605" width="912" height="2"/></clipPath></defs><g clip-path="url(#stack-lane-4)"><g transform="translate(-56 605)"><rect class="prof-sweep" width="100" height="2" fill="url(#prof-sweep-fill)" style="--travel:1028px;animation-delay:-6.0s"/></g></g></svg>